<mxfile host="65bd71144e">
    <diagram id="tr_AK1OMTG2gtePy8GfP" name="Page-1">
        <mxGraphModel dx="2096" dy="1676" grid="1" gridSize="10" guides="1" tooltips="1" connect="1" arrows="1" fold="1" page="1" pageScale="1" pageWidth="850" pageHeight="1100" math="0" shadow="0">
            <root>
                <mxCell id="0"/>
                <mxCell id="1" parent="0"/>
                <mxCell id="2" value="" style="swimlane;startSize=0;" vertex="1" parent="1">
                    <mxGeometry x="60" y="55" width="730" height="990" as="geometry"/>
                </mxCell>
                <mxCell id="4" value="&lt;p style=&quot;line-height: 80%;&quot;&gt;Soduko&lt;/p&gt;" style="rounded=0;whiteSpace=wrap;html=1;" vertex="1" parent="2">
                    <mxGeometry x="245" y="80" width="265" height="60" as="geometry"/>
                </mxCell>
                <mxCell id="5" value="Main Board" style="whiteSpace=wrap;html=1;aspect=fixed;fontSize=20;" vertex="1" parent="2">
                    <mxGeometry x="142.5" y="260" width="470" height="470" as="geometry"/>
                </mxCell>
                <mxCell id="7" value="Timer" style="rounded=1;whiteSpace=wrap;html=1;fontSize=20;" vertex="1" parent="2">
                    <mxGeometry x="280" y="170" width="180" height="60" as="geometry"/>
                </mxCell>
                <mxCell id="9" style="edgeStyle=none;html=1;exitX=1;exitY=1;exitDx=0;exitDy=0;entryX=1;entryY=0.25;entryDx=0;entryDy=0;fontSize=20;" edge="1" parent="2" source="4" target="4">
                    <mxGeometry relative="1" as="geometry"/>
                </mxCell>
                <mxCell id="10" value="play" style="rounded=0;whiteSpace=wrap;html=1;fontSize=20;shadow=1;" vertex="1" parent="2">
                    <mxGeometry x="225" y="805" width="120" height="60" as="geometry"/>
                </mxCell>
                <mxCell id="12" style="edgeStyle=none;html=1;exitX=0;exitY=0;exitDx=0;exitDy=0;entryX=0.113;entryY=0.02;entryDx=0;entryDy=0;entryPerimeter=0;fontSize=20;" edge="1" parent="2" source="10" target="10">
                    <mxGeometry relative="1" as="geometry"/>
                </mxCell>
                <mxCell id="13" value="Restart" style="rounded=0;whiteSpace=wrap;html=1;shadow=1;fontSize=20;" vertex="1" parent="2">
                    <mxGeometry x="430" y="805" width="120" height="60" as="geometry"/>
                </mxCell>
            </root>
        </mxGraphModel>
    </diagram>
</mxfile>